@startuml

!include dynamic_gui.wsdi
hide AutoUpdater
hide DynamicNode
hide refreshes_dynamics
hide BlockSignals
hide feed_with_data

title generic_widget

package gui.generated {
	

class GeneratedClass < generated by Qt >

}

package generic_widget #FFFFFF {

class GenericWidget
GenericWidget : CLOSING_SIGNAL
GenericWidget : widget
GenericWidget : show(self)
GenericWidget : lock_size(widget)
GenericWidget --|> DynamicRoot
GenericWidget --* GeneratedClass



}

@enduml